# AST/ASF file generated using VICON BodyLanguage
# -----------------------------------------------
:version 1.10
:name VICON
:units
  mass 1.0
  length 0.45
  angle deg
:documentation
   .ast/.asf automatically generated from VICON data using
   VICON BodyBuilder and BodyLanguage model FoxedUp or BRILLIANT.MOD
:root
   order TX TY TZ RX RY RZ
   axis XYZ
   position 0 0 0  
   orientation 0 0 0 
:bonedata
  begin
     id 1 
     name lhipjoint
     direction 0.567725 -0.736092 0.368589 
     length 2.42353 
     axis 0 0 0  XYZ
  end
  begin
     id 2 
     name lfemur
     direction 0.34202 -0.939693 0  
     length 7.24894  
     axis 0 0 20  XYZ
    dof rx ry rz
    limits (-160.0 20.0)
           (-70.0 70.0)
           (-60.0 70.0)
  end
  begin
     id 3 
     name ltibia
     direction 0.34202 -0.939693 0   
     length 7.6997   
     axis 0 0 20   XYZ
    dof rx
    limits (-10.0 170.0)
  end
  begin
     id 4 
     name lfoot
     direction 0.100767 -0.276854 0.955614   
     length 2.37556   
     axis -90 7.62852e-016 20   XYZ
    dof rx rz
    limits (-45.0 90.0)
           (-70.0 20.0)
  end
  begin
     id 5 
     name ltoes
     direction 1.53592e-011 -4.21894e-011 1   
     length 1.18363   
     axis -90 7.62852e-016 20   XYZ
    dof rx
    limits (-90.0 20.0)
  end
  begin
     id 6 
     name rhipjoint
     direction -0.556459 -0.742938 0.372017   
     length 2.4012  
     axis 0 0 0  XYZ 
  end
  begin
     id 7 
     name rfemur
     direction -0.34202 -0.939693 0   
     length 7.5119   
     axis 0 0 -20   XYZ
    dof rx ry rz
    limits (-160.0 20.0)
           (-70.0 70.0)
           (-70.0 60.0)
  end
  begin
     id 8 
     name rtibia
     direction -0.34202 -0.939693 0   
     length 7.50155   
     axis 0 0 -20   XYZ
    dof rx
    limits (-10.0 170.0)
 end
 begin
     id 9 
     name rfoot
     direction -0.118427 -0.325376 0.938139   
     length 2.32487  
     axis -90 -7.62852e-016 -20   XYZ
    dof rx rz
    limits (-45.0 90.0)
           (-20.0 70.0)
  end
  begin
     id 10 
     name rtoes
     direction -1.53525e-011 -4.21868e-011 1   
     length 1.15233   
     axis -90 -7.62852e-016 -20   XYZ
    dof rx
    limits (-90.0 20.0)
  end
  begin
     id 11 
     name lowerback
     direction 0.0287568 0.999577 -0.00434502   
     length 2.15243   
     axis 0 0 0   XYZ
    dof rx ry rz
    limits (-20.0 45.0)
           (-30.0 30.0)
           (-30.0 30.0)
  end
  begin
     id 12 
     name upperback
     direction 0.0294009 0.99956 0.00404628   
     length 2.15427   
     axis 0 0 0   XYZ
    dof rx ry rz
    limits (-20.0 45.0)
           (-30.0 30.0)
           (-30.0 30.0)
  end
  begin
     id 13 
     name thorax
     direction 0.0151014 0.999868 0.0059419   
     length 2.14898   
     axis 0 0 0   XYZ
    dof rx ry rz
    limits (-20.0 45.0)
           (-30.0 30.0)
           (-30.0 30.0)
  end
  begin
     id 14 
     name lowerneck
     direction -0.0249197 0.989906 0.139515   
     length 1.6861   
     axis 0 0 0   XYZ
    dof rx ry rz
    limits (-20.0 45.0)
           (-30.0 30.0)
           (-30.0 30.0)
  end
  begin
     id 15 
     name upperneck
     direction 0.0438463 0.988795 -0.142693   
     length 1.71276   
     axis 0 0 0   XYZ
    dof rx ry rz
    limits (-20.0 45.0)
           (-30.0 30.0)
           (-30.0 30.0)
  end
  begin
     id 16
     name head
     direction 0.0148499 0.997845 -0.0639186  
     length 1.7209  
     axis 0 0 0   XYZ
    dof rx ry rz
    limits (-20.0 45.0)
           (-30.0 30.0)
           (-30.0 30.0)
  end
  begin
     id 17 
     name lclavicle
     direction 0.940298 0.323464 -0.105876  
     length 3.9048  
     axis 0 0 0   XYZ
    dof ry rz
    limits (-20.0 10.0)
           (0.0 20.0)
  end
  begin
     id 18 
     name lhumerus
     direction 1 -4.48954e-011 -4.9675e-028   
     length 4.6851   
     axis 180 -30 -90   XYZ
    dof rx ry rz
    limits (-60.0 90.0)
           (-90.0 90.0)
           (-90.0 90.0)
  end
  begin
     id 19
     name lradius
     direction 1 -4.48992e-011 -1.03359e-026   
     length 3.39626   
     axis 180 -30 -90   XYZ
    dof rx
    limits (-10.0 170.0)
  end
  begin
     id 20
     name lwrist
     direction 1 -4.48906e-011 -1.67336e-026   
     length 1.69813   
     axis 9.90442e-015 90 90   XYZ
    dof ry
    limits (-180.0 0.0)
 end
  begin
     id 21 
     name lhand
     direction 1 -4.49006e-011 -3.34673e-026   
     length 0.486078   
     axis 2.1355e-014 90 90   XYZ
    dof rx rz
    limits (-90.0 90.0)
           (-45.0 45.0)
  end
  begin
     id 22 
     name lfingers
     direction 1 -4.48992e-011 -6.69345e-026   
     length 0.391889   
     axis 4.27099e-014 90 90   XYZ
    dof rx
    limits (0.0 90.0)
  end
  begin
     id 23
     name lthumb
     direction 0.707107 -6.34926e-011 0.707107   
     length 0.562676   
     axis -90 45 2.85299e-015   XYZ
    dof rx rz
    limits (-45.0 45.0)
           (-45.0 45.0)
  end
  begin
     id 24 
     name rclavicle
     direction -0.882459 0.414895 -0.221648   
     length 3.44646  
     axis 0 0 0   XYZ 
    dof ry rz
    limits (-10.0 20.0)
           (-20.0 0.0)
  end
  begin
     id 25 
     name rhumerus
     direction -1 -4.48962e-011 -2.37984e-027  
     length 5.55576   
     axis 180 30 90   XYZ
    dof rx ry rz
    limits (-90.0 60.0)
           (-90.0 90.0)
           (-90.0 90.0)
  end
  begin
     id 26 
     name rradius
     direction -1 -4.48982e-011 -6.86791e-027   
     length 3.32774   
     axis 180 30 90   XYZ
    dof rx
    limits (-10.0 170.0)
  end
  begin
     id 27 
     name rwrist
     direction -1 -4.48961e-011 -1.67336e-026   
     length 1.66387   
     axis 9.90442e-015 -90 -90   XYZ
    dof ry
    limits (-180.0 0.0)
  end
  begin
     id 28
     name rhand
     direction -1 -4.4897e-011 -3.34673e-026   
     length 0.507628   
     axis 2.1355e-014 -90 -90   XYZ
    dof rx rz
    limits (-90.0 90.0)
           (-45.0 45.0)
  end
  begin
     id 29
     name rfingers
     direction -1 -4.48854e-011 -6.69345e-026   
     length 0.409263   
     axis 4.27099e-014 -90 -90   XYZ
    dof rx
    limits (0.0 90.0)
  end
  begin
     id 30
     name rthumb
     direction -0.707107 -6.34913e-011 0.707107   
     length 0.587622   
     axis -90 -45 -2.85299e-015   XYZ
    dof rx rz
    limits (-45.0 45.0)
           (-45.0 45.0)
  end
:hierarchy
  begin
    root lhipjoint rhipjoint lowerback
    lhipjoint lfemur
    lfemur ltibia
    ltibia lfoot
    lfoot ltoes
    rhipjoint rfemur
    rfemur rtibia
    rtibia rfoot
    rfoot rtoes
    lowerback upperback
    upperback thorax
    thorax lowerneck lclavicle rclavicle
    lowerneck upperneck
    upperneck head
    lclavicle lhumerus
    lhumerus lradius
    lradius lwrist
    lwrist lhand lthumb
    lhand lfingers
    rclavicle rhumerus
    rhumerus rradius
    rradius rwrist
    rwrist rhand rthumb
    rhand rfingers
  end

#!OML:ASF E:\motion texture\Top Level 1\Subject 1\Session 1\male.ASF
:FULLY-SPECIFIED
:DEGREES
49
root 23.796 17.5421 6.34957 147.489 -80.6858 -139.384
lowerback -1.41089 4.39291 5.0927
upperback -4.01329 5.83248 0.520164
thorax -2.90245 2.73984 -2.33883
lowerneck -16.831 -3.70396 -6.69953
upperneck 15.7607 -5.43303 9.98537
head 8.12274 -2.05827 3.78887
rclavicle 2.04065e-015 -2.78299e-015
rhumerus -12.8011 -8.91098 -71.6003
rradius 83.8116
rwrist -9.92852
rhand -14.4232 -23.1316
rfingers 7.12502
rthumb 11.721 -52.7837
lclavicle 2.04065e-015 -2.78299e-015
lhumerus -35.3611 34.4719 38.1983
lradius 90.6085
lwrist 15.2921
lhand -9.6208 17.993
lfingers 7.12502
lthumb 16.3488 47.3239
rfemur 0.595392 0.923434 29.5264
rtibia 34.8992
rfoot -2.73649 5.94581
rtoes 4.80272
lfemur -30.5566 -4.22982 -12.1782
ltibia 20.7375
lfoot 1.32635 3.5043
ltoes 0.172453
50
root 23.6283 17.5515 6.34733 148.075 -80.6355 -140.226
lowerback -1.28474 4.31475 5.13061
upperback -3.95691 5.73606 0.445642
thorax -2.91083 2.6915 -2.44416
lowerneck -16.7524 -3.62624 -6.61512
upperneck 15.8129 -5.36863 10.0321
head 8.11945 -2.02102 3.7999
rclavicle 1.8018e-014 2.54444e-014
rhumerus -13.391 -8.63183 -71.8708
rradius 82.8638
rwrist -9.44069
rhand -14.5074 -22.99
rfingers 7.12502
rthumb 11.6398 -52.6467
lclavicle 1.8018e-014 2.54444e-014
lhumerus -35.0644 34.8037 39.1119
lradius 89.6155
lwrist 14.7007
lhand -9.90567 17.8322
lfingers 7.12502
lthumb 16.0745 47.1855
rfemur -0.214808 0.229987 28.929
rtibia 37.1304
rfoot -0.0879515 5.99317
rtoes 5.1857
lfemur -30.039 -4.03921 -12.5411
ltibia 21.4505
lfoot 1.20381 3.12834
ltoes 1.82088
51
root 23.4633 17.5588 6.3466 148.785 -80.5886 -141.203
lowerback -1.14191 4.23036 5.15056
upperback -3.90101 5.63249 0.380921
thorax -2.93267 2.63986 -2.53088
lowerneck -16.6785 -3.55993 -6.53642
upperneck 15.9063 -5.31832 10.0601
head 8.13152 -1.99195 3.80423
rclavicle 4.59876e-014 -1.17283e-014
rhumerus -13.943 -8.29716 -72.1574
rradius 81.7981
rwrist -8.951
rhand -14.5422 -22.8467
rfingers 7.12502
rthumb 11.6062 -52.5053
lclavicle 4.59876e-014 -1.17283e-014
lhumerus -34.7608 35.1818 40.0819
lradius 88.4428
lwrist 14.1115
lhand -10.1459 17.7002
lfingers 7.12502
lthumb 15.8431 47.072
rfemur -1.08037 -0.398662 28.3256
rtibia 39.3827
rfoot 2.69071 5.91596
rtoes 5.48271
lfemur -29.4664 -3.89013 -12.9209
ltibia 22.0874
lfoot 0.922858 2.85988
ltoes 3.04093
52
root 23.3012 17.5641 6.34683 149.916 -80.5728 -142.608
lowerback -0.990969 4.13878 5.08592
upperback -3.84014 5.51916 0.313083
thorax -2.96212 2.58581 -2.57461
lowerneck -16.6328 -3.50523 -6.46654
upperneck 16.0409 -5.28042 10.0703
head 8.1631 -1.96958 3.80288
rclavicle -5.05193e-014 1.59028e-015
rhumerus -14.4308 -7.91115 -72.462
rradius 80.608
rwrist -8.45003
rhand -14.5369 -22.6882
rfingers 7.12502
rthumb 11.6114 -52.3465
lclavicle -5.05193e-014 1.59028e-015
lhumerus -34.4433 35.6174 41.1055
lradius 87.0954
lwrist 13.5297
lhand -10.3433 17.5932
lfingers 7.12502
lthumb 15.653 46.9799
rfemur -1.99793 -0.938189 27.6668
rtibia 41.6559
rfoot 5.5221 5.75641
rtoes 5.92549
lfemur -28.8491 -3.80486 -13.3773
ltibia 22.6455
lfoot 0.500211 2.70938
ltoes 3.80544
53
root 23.1418 17.5678 6.3475 151.639 -80.594 -144.61
lowerback -0.835105 4.04191 4.90579
upperback -3.78322 5.39763 0.232176
thorax -3.0078 2.53043 -2.5685
lowerneck -16.5934 -3.46079 -6.40501
upperneck 16.2178 -5.25536 10.0655
head 8.21083 -1.95456 3.79676
rclavicle -2.59228e-014 -2.06736e-014
rhumerus -14.8688 -7.46868 -72.7859
rradius 79.2923
rwrist -7.92562
rhand -14.5314 -22.5116
rfingers 7.12502
rthumb 11.6167 -52.1696
lclavicle -2.59228e-014 -2.06736e-014
lhumerus -34.1214 36.0934 42.1642
lradius 85.5756
lwrist 12.9519
lhand -10.4868 17.5088
lfingers 7.12502
lthumb 15.5149 46.9063
rfemur -2.9621 -1.37064 26.9314
rtibia 43.9452
rfoot 8.3457 5.51208
rtoes 6.7908
lfemur -28.1935 -3.77876 -13.9418
ltibia 23.1277
lfoot -0.0496368 2.67963
ltoes 4.13816
54
root 22.9845 17.5706 6.3483 154.01 -80.6488 -147.262
lowerback -0.68619 3.93934 4.598
upperback -3.72525 5.26568 0.138192
thorax -3.05845 2.47337 -2.50438
lowerneck -16.5715 -3.42725 -6.35324
upperneck 16.432 -5.24264 10.0462
head 8.27511 -1.94642 3.7863
rclavicle 2.49785e-014 1.17283e-014
rhumerus -15.2471 -6.97449 -73.1281
rradius 77.855
rwrist -7.37998
rhand -14.5387 -22.3105
rfingers 7.12502
rthumb 11.6097 -51.9689
lclavicle 2.49785e-014 1.17283e-014
lhumerus -33.7922 36.6098 43.2576
lradius 83.8917
lwrist 12.3623
lhand -10.6025 17.4692
lfingers 7.12502
lthumb 15.4034 46.8753
rfemur -3.97168 -1.70916 26.1088
rtibia 46.2425
rfoot 11.1113 5.13781
rtoes 8.20676
lfemur -27.5078 -3.79284 -14.6276
ltibia 23.5378
lfoot -0.684999 2.74346
ltoes 4.11907
55
root 22.8292 17.5732 6.34881 156.879 -80.7278 -150.406
lowerback -0.553668 3.8271 4.18368
upperback -3.66526 5.1172 0.0388896
thorax -3.10646 2.41116 -2.38483
lowerneck -16.5731 -3.40516 -6.31219
upperneck 16.6733 -5.24171 10.0138
head 8.35379 -1.94475 3.77199
rclavicle -2.8302e-014 4.77083e-015
rhumerus -15.5603 -6.42973 -73.4857
rradius 76.2964
rwrist -6.8151
rhand -14.5974 -22.0951
rfingers 7.12502
rthumb 11.5531 -51.7567
lclavicle -2.8302e-014 4.77083e-015
lhumerus -33.453 37.158 44.3843
lradius 82.0507
lwrist 11.7539
lhand -10.7227 17.4826
lfingers 7.12502
lthumb 15.2877 46.8976
rfemur -5.03301 -1.98954 25.2224
rtibia 48.5339
rfoot 13.7074 4.59738
rtoes 10.0182
lfemur -26.8144 -3.83327 -15.406
ltibia 23.8971
lfoot -1.36676 2.84636
ltoes 3.92429
